<svg xmlns="http://www.w3.org/2000/svg" viewBox="0 0 27.454 17.516"><defs><style>.a{fill:#595959;}</style></defs><path class="a" d="M6.655,0h3.429l6.655,17.344H13.311L11.9,13.714H4.84l-1.412,3.63H0ZM8.47,4.639,6.05,10.487h4.639Z" transform="translate(0 0)"/><path class="a" d="M16.527,2.249H18.9v9.507H16.527v-1.04a3.508,3.508,0,0,1-1.337.891,5.278,5.278,0,0,1-1.485.3,3.926,3.926,0,0,1-3.119-1.485A3.927,3.927,0,0,1,9.1,7a4.818,4.818,0,0,1,1.337-3.565A4.275,4.275,0,0,1,13.556,2.1a6.317,6.317,0,0,1,1.634.3c.594.149.891.594,1.337,1.04ZM14,4.328a2.46,2.46,0,0,0-1.782.743A2.824,2.824,0,0,0,11.477,7a3.22,3.22,0,0,0,.743,2.08A2,2,0,0,0,14,9.824a2.46,2.46,0,0,0,1.782-.743A2.7,2.7,0,0,0,16.676,7a2.566,2.566,0,0,0-.743-1.931A2.46,2.46,0,0,0,14,4.328Z" transform="translate(8.55 5.613)"/></svg>