<svg xmlns="http://www.w3.org/2000/svg" viewBox="0 0 21.396 18"><defs><style>.a{fill:#595959;}</style></defs><path class="a" d="M7.923,3.067H20.191A1.185,1.185,0,0,0,21.4,1.9,1.185,1.185,0,0,0,20.191.73H7.923A1.185,1.185,0,0,0,6.718,1.9a1.209,1.209,0,0,0,1.2,1.168ZM20.191,7.85H7.923a1.169,1.169,0,1,0,0,2.337H20.191a1.185,1.185,0,0,0,1.2-1.168,1.208,1.208,0,0,0-1.2-1.168Zm0,7.083H7.923a1.169,1.169,0,1,0,0,2.337H20.191A1.185,1.185,0,0,0,21.4,16.1a1.234,1.234,0,0,0-1.2-1.168ZM1.935,0A1.917,1.917,0,0,0,0,1.9,1.917,1.917,0,0,0,1.935,3.8,1.917,1.917,0,0,0,3.87,1.9,1.894,1.894,0,0,0,1.935,0Zm0,7.12a1.9,1.9,0,1,0,0,3.8,1.917,1.917,0,0,0,1.935-1.9,1.894,1.894,0,0,0-1.935-1.9Zm0,7.12a1.881,1.881,0,1,0,0,3.761A1.917,1.917,0,0,0,3.87,16.1a1.887,1.887,0,0,0-1.935-1.862Zm0,0" transform="translate(0 0)"/></svg>