<svg xmlns="http://www.w3.org/2000/svg" viewBox="0 0 20.895 20.175"><defs><style>.a{fill:#595959;}</style></defs><g transform="translate(468.5 -340)"><g transform="translate(-469 341)"><path class="a" d="M7.923,3.067H20.191A1.185,1.185,0,0,0,21.4,1.9,1.185,1.185,0,0,0,20.191.73H7.923A1.185,1.185,0,0,0,6.718,1.9a1.209,1.209,0,0,0,1.2,1.168ZM20.191,7.85H7.923a1.169,1.169,0,1,0,0,2.337H20.191a1.185,1.185,0,0,0,1.2-1.168,1.208,1.208,0,0,0-1.2-1.168Zm0,7.083H7.923a1.169,1.169,0,1,0,0,2.337H20.191A1.185,1.185,0,0,0,21.4,16.1a1.234,1.234,0,0,0-1.2-1.168ZM1.935,14.239Z" transform="translate(0 0)"/></g><path class="a" d="M20.084,10.1a.787.787,0,0,1-.788.788H7.113a.788.788,0,1,1,0-1.575H19.3A.787.787,0,0,1,20.084,10.1ZM7.113,3.579H19.3A.788.788,0,1,0,19.3,2H7.113a.788.788,0,1,0,0,1.575ZM19.3,16.432H7.113a.788.788,0,1,0,0,1.575H19.3a.788.788,0,1,0,0-1.575ZM1.231,2.67l.3-.236V4.761a.788.788,0,0,0,1.575,0V.831A.788.788,0,0,0,1.841.209L.266,1.425A.787.787,0,1,0,1.231,2.67Zm1.953,8.651H2.621c1.15-1.3,1.3-1.941,1.3-2.359A1.968,1.968,0,0,0,1.955,7H1.924A1.97,1.97,0,0,0-.037,8.966a.788.788,0,0,0,1.575,0,.4.4,0,0,1,.394-.394h.032a.4.4,0,0,1,.394.386,4.055,4.055,0,0,1-1.028,1.465c-.547.6-1.095,1.1-1.1,1.106A.788.788,0,0,0,.758,12.9H3.2a.787.787,0,0,0,.788-.788A.8.8,0,0,0,3.184,11.321ZM1.955,14.27H1.924A1.983,1.983,0,0,0,.234,15.2.786.786,0,0,0,.49,16.278a.785.785,0,0,0,1.083-.256.42.42,0,0,1,.354-.177h.032a.4.4,0,0,1,.394.394c0,.059-.169.232-.339.319l.008,0h0A.787.787,0,0,0,2.085,18a.643.643,0,0,1,.268.209.4.4,0,0,1-.394.394.645.645,0,0,0-.15.016.493.493,0,0,1-.232-.189.787.787,0,0,0-1.339.827,2.012,2.012,0,0,0,1.689.965.733.733,0,0,0,.3-.059,1.966,1.966,0,0,0,1.7-1.945,1.584,1.584,0,0,0-.335-.973,1.667,1.667,0,0,0,.335-.992A1.971,1.971,0,0,0,1.955,14.27Z" transform="translate(-468.461 339.955)"/></g></svg>