<svg xmlns="http://www.w3.org/2000/svg" viewBox="0 0 35 35"><defs><style>.a{fill:#65b0f6;}.b{fill:#fff;}</style></defs><g transform="translate(-195 -248)"><path class="a" d="M17.5,0A17.5,17.5,0,1,1,0,17.5,17.5,17.5,0,0,1,17.5,0Z" transform="translate(195 248)"/><g transform="translate(206.667 256.75)"><path class="b" d="M20.061,12.135a3.365,3.365,0,0,0,3.361-3.361v-5.4A3.234,3.234,0,0,0,22.436,1a3.139,3.139,0,0,0-2.375-1,3.234,3.234,0,0,0-2.375.986A3.234,3.234,0,0,0,16.7,3.361v5.4a3.393,3.393,0,0,0,3.361,3.377Zm0,0" transform="translate(-14.001 0)"/><path class="b" d="M11.925,41.994a.663.663,0,0,0-1.131.469V43.8A4.553,4.553,0,0,1,9.4,47.132a4.553,4.553,0,0,1-3.329,1.39,4.553,4.553,0,0,1-3.329-1.39A4.553,4.553,0,0,1,1.357,43.8V42.463a.647.647,0,0,0-.194-.469A.647.647,0,0,0,.695,41.8a.647.647,0,0,0-.469.194A.572.572,0,0,0,0,42.463V43.8A5.87,5.87,0,0,0,1.551,47.86,5.838,5.838,0,0,0,5.4,49.831v1.39H2.7a.663.663,0,1,0,0,1.325H9.437a.663.663,0,1,0,0-1.325h-2.7v-1.39a5.911,5.911,0,0,0,3.846-1.971A5.87,5.87,0,0,0,12.135,43.8V42.463a.6.6,0,0,0-.21-.469Zm0,0" transform="translate(0 -35.046)"/></g></g></svg>