<svg xmlns="http://www.w3.org/2000/svg" viewBox="0 0 35 35"><defs><style>.a{fill:#e4838a;}.b{fill:#fff;}</style></defs><g transform="translate(-355 -248)"><circle class="a" cx="17.5" cy="17.5" r="17.5" transform="translate(355 248)"/><g transform="translate(365.5 256.75)"><path class="b" d="M115.306,112.237a3.069,3.069,0,1,0,3.069,3.069,3.074,3.074,0,0,0-3.069-3.069Zm0,8.375a5.306,5.306,0,1,1,5.306-5.306,5.311,5.311,0,0,1-5.306,5.306Z" transform="translate(-108.296 -108.296)"/><path class="b" d="M7.01,1.367A5.651,5.651,0,0,0,1.367,7.01v.195c0,3.305,4.255,7.3,5.643,8.518,1.384-1.213,5.643-5.212,5.643-8.518V7.01A5.651,5.651,0,0,0,7.01,1.367Zm0,16.133-.431-.349a29.084,29.084,0,0,1-3.25-3.175C1.121,11.437,0,9.16,0,7.205V7.01a7.01,7.01,0,1,1,14.021,0v.195c0,1.955-1.121,4.235-3.333,6.771a28.405,28.405,0,0,1-3.25,3.175L7.01,17.5Z"/><path class="b" d="M6.359,15.879h0A28.375,28.375,0,0,1,3.31,12.887C1.9,11.271.185,8.868.016,6.6a5.54,5.54,0,0,1,1.522-4.27A7.337,7.337,0,0,1,6.359,0a7.212,7.212,0,0,1,4.708,2.135A6.053,6.053,0,0,1,12.8,6.6a7.39,7.39,0,0,1-1.046,3.416,16.028,16.028,0,0,1-2.21,2.973A24.344,24.344,0,0,1,6.36,15.879Zm-.01-13.05a3.5,3.5,0,1,0,3.5,3.5A3.5,3.5,0,0,0,6.349,2.829Z" transform="translate(0.651 0.672)"/></g></g></svg>