<svg xmlns="http://www.w3.org/2000/svg" viewBox="0 0 35 35"><defs><style>.a{fill:#a77dc2;}.b{fill:#fff;}</style></defs><g transform="translate(-275 -248)"><path class="a" d="M17.5,0A17.5,17.5,0,1,1,0,17.5,17.5,17.5,0,0,1,17.5,0Z" transform="translate(275 248)"/><g transform="translate(280.25 260.25)"><path class="b" d="M11.2,2.175,9.656,3.719A4.581,4.581,0,0,0,6.22,2.153,3.953,3.953,0,0,0,3.349,3.284,3.761,3.761,0,0,0,2.2,6.046,3.828,3.828,0,0,0,3.393,8.9,4.068,4.068,0,0,0,6.351,10.07a3.653,3.653,0,0,0,1.936-.478,3.488,3.488,0,0,0,1.261-1.5H6.2V6.024h5.829l.022.478a5.588,5.588,0,0,1-.783,2.871A5.192,5.192,0,0,1,9.221,11.44a5.759,5.759,0,0,1-2.936.718,6.591,6.591,0,0,1-3.219-.783,5.553,5.553,0,0,1-2.24-2.24A6.22,6.22,0,0,1,0,6.024a5.788,5.788,0,0,1,1.522-4A5.966,5.966,0,0,1,6.2,0,7.211,7.211,0,0,1,9.026.565,6.46,6.46,0,0,1,11.2,2.175Z" transform="translate(0)"/><path class="b" d="M63.9,1.3h2.2V12.87H63.9Z" transform="translate(-50.003 -1.017)"/><path class="b" d="M85.4,1.3h5.742V3.453H87.6v2.11h3.545v2.11H87.6v5.2H85.4Z" transform="translate(-66.827 -1.017)"/></g></g></svg>