<svg xmlns="http://www.w3.org/2000/svg" viewBox="0 0 35 35"><defs><style>.a{fill:#a47a4b;}.b{fill:none;}.c,.d,.e,.g{fill:#fff;}.c{stroke:#fff;stroke-width:2px;}.f,.g{stroke:none;}</style></defs><g transform="translate(-157 -175)"><circle class="a" cx="17.5" cy="17.5" r="17.5" transform="translate(157 175)"/><g transform="translate(166.333 183.75)"><rect class="b" width="15.75" height="15.75" transform="translate(0 1.75)"/><g transform="translate(1.167 0)"><g class="c" transform="translate(2.917)"><ellipse class="f" cx="3.792" cy="3.792" rx="3.792" ry="3.792"/><ellipse class="b" cx="3.792" cy="3.792" rx="2.792" ry="2.792"/></g><g class="d" transform="translate(0 8.555)"><path class="f" d="M 11.37510013580322 7.945099830627441 L 2.042100191116333 7.945099830627441 C 1.467480063438416 7.945099830627441 1.00000011920929 7.478019714355469 1.00000011920929 6.903900146484375 C 1.00000011920929 6.872200012207031 1.001420140266418 6.840179920196533 1.004230141639709 6.808740139007568 L 1.010420083999634 6.739429950714111 L 1.006940126419067 6.669939994812012 C 1.002340078353882 6.577690124511719 1.00000011920929 6.484719753265381 1.00000011920929 6.393599987030029 C 1.00000011920929 3.419559955596924 3.419560194015503 0.9999999403953552 6.393599987030029 0.9999999403953552 L 7.242300033569336 0.9999999403953552 C 10.14959621429443 0.9999999403953552 12.526930809021 3.312774896621704 12.6314115524292 6.195499897003174 L 12.52840995788574 6.195499897003174 L 12.40567970275879 7.053969860076904 C 12.33304977416992 7.561999797821045 11.89000034332275 7.945099830627441 11.37510013580322 7.945099830627441 Z"/><path class="g" d="M 11.37510013580322 6.945099830627441 C 11.40839004516602 6.945099830627441 11.41569042205811 6.912779808044434 11.41574001312256 6.912449836730957 L 11.58488845825195 5.729288578033447 C 11.26377201080322 3.62075400352478 9.438694953918457 1.99999988079071 7.242300033569336 1.99999988079071 L 6.393599987030029 1.99999988079071 C 3.970960140228271 1.99999988079071 2 3.970959901809692 2 6.393599987030029 C 2 6.46815013885498 2.001920223236084 6.544340133666992 2.00570011138916 6.620049953460693 L 2.012639999389648 6.759029865264893 L 2.000270128250122 6.897639751434326 C 2.0000901222229 6.899650096893311 2 6.901750087738037 2 6.903900146484375 C 2 6.926620006561279 2.018890142440796 6.945099830627441 2.042100191116333 6.945099830627441 L 11.37510013580322 6.945099830627441 M 11.37510013580322 8.945099830627441 L 2.042100191116333 8.945099830627441 C 0.9144001007080078 8.945099830627441 1.144409154107962e-07 8.031599998474121 1.144409154107962e-07 6.903900146484375 C 1.144409154107962e-07 6.84188985824585 0.002780114533379674 6.780439853668213 0.008190114051103592 6.71983003616333 C 0.002740114461630583 6.610729694366455 1.144409154107962e-07 6.50186014175415 1.144409154107962e-07 6.393599987030029 C 1.144409154107962e-07 2.868299961090088 2.868300199508667 -8.46862775460977e-08 6.393599987030029 -8.46862775460977e-08 L 7.242300033569336 -8.46862775460977e-08 C 10.76760005950928 -8.46862775460977e-08 13.63500022888184 2.868299961090088 13.63500022888184 6.393599987030029 C 13.63500022888184 6.955199718475342 13.56210041046143 7.51230001449585 13.41810035705566 8.05049991607666 L 13.41629981994629 8.049599647521973 L 13.41629981994629 7.195499897003174 L 13.39560985565186 7.195499897003174 C 13.25415992736816 8.184909820556641 12.40375995635986 8.945099830627441 11.37510013580322 8.945099830627441 Z"/></g></g></g><path class="a" d="M3.68,9.368V8.03H2.008a2.007,2.007,0,1,1,0-4.015H3.68V2.008a2.007,2.007,0,1,1,4.015,0V4.015H9.368a2.007,2.007,0,0,1,0,4.015H7.7V9.368a2.007,2.007,0,0,1-4.015,0Z" transform="translate(175.083 191.333)"/><path class="e" d="M3.68,8.03V5.353H.669a.669.669,0,0,1,0-1.338H3.68V.67a.669.669,0,1,1,1.338,0V4.015h3.01a.669.669,0,1,1,0,1.338H5.018V8.03a.669.669,0,0,1-1.338,0Z" transform="translate(176.422 192.671)"/></g></svg>