<svg xmlns="http://www.w3.org/2000/svg" viewBox="0 0 35 35"><defs><style>.a{fill:#ffbc2d;}.b{fill:#fff;}.c{fill:#f4bf4f;}</style></defs><g transform="translate(-35 -248)"><circle class="a" cx="17.5" cy="17.5" r="17.5" transform="translate(35 248)"/><g transform="translate(43.75 257.333)"><path class="b" d="M14.841,0H1.573A1.578,1.578,0,0,0,0,1.573V14.527A1.578,1.578,0,0,0,1.573,16.1H14.841a1.578,1.578,0,0,0,1.573-1.573V1.573A1.578,1.578,0,0,0,14.841,0Zm0,1.573V8.456l-2.655-2.5a.964.964,0,0,0-.669-.269.953.953,0,0,0-.767.387L7.624,10.128a.544.544,0,0,1-.433.21.511.511,0,0,1-.321-.1L4.838,8.745A1.243,1.243,0,0,0,4.1,8.515a1.26,1.26,0,0,0-.819.288l-1.7,1.436V1.573Zm0,0"/><path class="b" d="M68.826,48.851A1.626,1.626,0,1,0,67.2,47.226a1.625,1.625,0,0,0,1.626,1.626Zm0,0" transform="translate(-62.795 -42.611)"/><g transform="translate(8.791 4.415)"><path class="c" d="M5.182,0A5.182,5.182,0,1,1,0,5.182,5.182,5.182,0,0,1,5.182,0Z" transform="translate(0.645 0.645)"/><path class="b" d="M5.827,11.661a5.831,5.831,0,1,1,5.827-5.834A5.839,5.839,0,0,1,5.827,11.661Zm0-10.37a4.537,4.537,0,1,0,4.537,4.537A4.547,4.547,0,0,0,5.827,1.291Z"/><g transform="translate(4.724 3.272)"><path class="b" d="M73.2,50.94v4.633a.243.243,0,0,0,.387.194l3.02-2.317a.243.243,0,0,0,0-.381l-3.02-2.317A.239.239,0,0,0,73.2,50.94Z" transform="translate(-73.2 -50.702)"/></g></g></g></g></svg>