<svg xmlns="http://www.w3.org/2000/svg" viewBox="0 0 35 35"><defs><style>.a{fill:#85c8c3;}.b{fill:#fff;}</style></defs><g transform="translate(-115 -248)"><g transform="translate(115 248)"><circle class="a" cx="17.5" cy="17.5" r="17.5"/></g><g transform="translate(122 256.167)"><path class="b" d="M5.035,0H7.628l5.035,13.12H10.069L9,10.374H3.661L2.594,13.12H0ZM6.408,3.509,4.577,7.933H8.086Z" transform="translate(0 3.605)"/><path class="b" d="M14.718,2.212h1.8V9.4h-1.8V8.617a2.653,2.653,0,0,1-1.011.674,3.992,3.992,0,0,1-1.124.225,2.97,2.97,0,0,1-2.36-1.124A2.97,2.97,0,0,1,9.1,5.808a3.645,3.645,0,0,1,1.011-2.7A3.234,3.234,0,0,1,12.471,2.1a4.779,4.779,0,0,1,1.236.225c.449.112.674.449,1.011.787Zm-1.91,1.573a1.861,1.861,0,0,0-1.348.562A2.136,2.136,0,0,0,10.9,5.808a2.436,2.436,0,0,0,.562,1.573,1.512,1.512,0,0,0,1.348.562,1.861,1.861,0,0,0,1.348-.562,2.04,2.04,0,0,0,.674-1.573,1.941,1.941,0,0,0-.562-1.461A1.861,1.861,0,0,0,12.808,3.785Z" transform="translate(4.252 7.34)"/><path class="b" d="M0,0A3.378,3.378,0,0,0,2.059.825,3.378,3.378,0,0,0,4.119,0a3.378,3.378,0,0,0-.825,2.059,3.378,3.378,0,0,0,.825,2.059,3.378,3.378,0,0,0-2.059-.825A3.378,3.378,0,0,0,0,4.119,3.378,3.378,0,0,0,.825,2.059,3.378,3.378,0,0,0,0,0Z" transform="translate(12.601 5.825) rotate(-135)"/><path class="b" d="M0,0A1.9,1.9,0,0,0,1.16.465,1.9,1.9,0,0,0,2.32,0a1.9,1.9,0,0,0-.465,1.16A1.9,1.9,0,0,0,2.32,2.32a1.9,1.9,0,0,0-1.16-.465A1.9,1.9,0,0,0,0,2.32,1.9,1.9,0,0,0,.465,1.16,1.9,1.9,0,0,0,0,0Z" transform="translate(16.579 7.47) rotate(-135)"/></g></g></svg>