<svg xmlns="http://www.w3.org/2000/svg" viewBox="0 0 17.96 15.001"><defs><style>.a{fill:#2a2a2a;}</style></defs><g transform="translate(0.048 0.001)"><path class="a" d="M5.607,6.9h0a2.623,2.623,0,0,1-1.671-2.57,2.893,2.893,0,0,1,.086-.6h0A4.4,4.4,0,0,1,5.307,1.713a4.741,4.741,0,0,1,.643-.428A2.812,2.812,0,0,1,6.72.942a3.437,3.437,0,0,1,.9-.171A7.883,7.883,0,0,1,8.562.728c.129,0,.171-.043.171-.129C8.776.514,8.691.428,8.605.386A7.409,7.409,0,0,0,7.663.129,9.008,9.008,0,0,0,6.635,0,5.807,5.807,0,0,0,5.564.086,3.818,3.818,0,0,0,4.536.428,6.35,6.35,0,0,0,1.323,3.47a12.448,12.448,0,0,0-1.242,4.2c-.086,1.114-.116.991-.127,1.879a11.576,11.576,0,0,0,.084,1.676,4.151,4.151,0,0,0,8.268,0v-.129A4.173,4.173,0,0,0,5.607,6.9Z" transform="translate(0 0)"/><path class="a" d="M27.135,6.9h0a2.623,2.623,0,0,1-1.671-2.57,2.893,2.893,0,0,1,.086-.6h0a4,4,0,0,1,1.242-2.013l.129-.129.171-.086.343-.214c.257-.129.514-.214.771-.343.3-.043.6-.129.9-.171l.942-.043h.043A.114.114,0,0,0,30.219.6c.043-.086-.043-.171-.129-.214L29.148.129c-.3-.043-.643-.086-.985-.129-.343.043-.685.043-1.071.086l-.514.129L26.321.3l-.257.129a6.185,6.185,0,0,0-3.17,3.084,12.448,12.448,0,0,0-1.242,4.2,20.672,20.672,0,0,0-.086,3.256v.257a4.151,4.151,0,0,0,8.268,0v-.129A4.173,4.173,0,0,0,27.135,6.9Z" transform="translate(-12.318)"/></g></svg>