<svg xmlns="http://www.w3.org/2000/svg" viewBox="0 0 21.506 18"><defs><style>.a{fill:#595959;}.b{fill:#bfbfbf;}</style></defs><g transform="translate(0.009)"><path class="a" d="M6.73,8.276h0a3.148,3.148,0,0,1-2-3.084,3.471,3.471,0,0,1,.1-.72h0A5.283,5.283,0,0,1,6.37,2.056L6.524,1.9l.206-.1.411-.257c.308-.154.617-.257.925-.411.36-.051.72-.154,1.08-.206L10.277.874h.051A.136.136,0,0,0,10.482.72c.051-.1-.051-.206-.154-.257L9.2.154,7.963,0c-.411.051-.822.051-1.285.1L6.061.257l-.308.1L5.445.514a7.62,7.62,0,0,0-3.855,3.65A14.937,14.937,0,0,0,.1,9.2,25.443,25.443,0,0,0,.047,13.16v.308a4.981,4.981,0,0,0,9.921,0v-.154A5.007,5.007,0,0,0,6.73,8.276Z" transform="translate(0 0)"/><path class="b" d="M28.254,8.276h0a3.148,3.148,0,0,1-2-3.084,3.471,3.471,0,0,1,.1-.72h0a4.8,4.8,0,0,1,1.491-2.416L28,1.9l.206-.1.411-.257c.308-.154.617-.257.925-.411.36-.051.72-.154,1.079-.206L31.749.874H31.8A.136.136,0,0,0,31.955.72c.051-.1-.051-.206-.154-.257L30.67.154C30.31.1,29.9.051,29.487,0c-.411.051-.822.051-1.285.1l-.617.154-.308.1-.308.154a7.421,7.421,0,0,0-3.8,3.7,14.937,14.937,0,0,0-1.491,5.038,24.807,24.807,0,0,0-.1,3.907v.308a4.981,4.981,0,0,0,9.921,0v-.154A5.007,5.007,0,0,0,28.254,8.276Z" transform="translate(-10.472)"/></g></svg>