<svg xmlns="http://www.w3.org/2000/svg" viewBox="0 0 24.208 21.172"><defs><style>.a{fill:none;stroke:#141414;stroke-linecap:round;stroke-linejoin:round;stroke-miterlimit:10;stroke-width:2px;}</style></defs><g transform="translate(0.611 0.536)"><path class="a" d="M20.659,2.461c-3.3-3.351-6.525-1.874-9.125.506-2.6-2.38-5.85-3.832-9.125-.506A6.728,6.728,0,0,0,.89,9.509a.582.582,0,0,0,.034.084c.025.059.042.11.068.169.017.034.025.068.042.1.025.051.042.1.068.152.034.076.076.152.11.228a.538.538,0,0,0,.068.118c.025.042.051.093.076.135s.042.076.068.118a.836.836,0,0,0,.093.144c.025.034.042.068.068.1.051.076.1.152.16.228a.468.468,0,0,0,.051.068c.042.059.084.11.127.169.025.034.051.059.076.093l.127.152c.025.025.051.059.076.084.059.068.118.127.186.194l.025.025C6.774,15.849,9.061,17.925,10.251,19a1.924,1.924,0,0,0,2.608-.008c1.19-1.08,3.452-3.157,7.8-7.124A6.674,6.674,0,0,0,20.659,2.461Z" transform="translate(0 0)"/></g></svg>