<svg xmlns="http://www.w3.org/2000/svg" width="30" height="30" viewBox="0 0 30 30"><g transform="translate(-213 -154)"><circle cx="15" cy="15" r="15" transform="translate(213 154)" fill="#7391e5"/><g transform="translate(220 161)"><path d="M8,0A8,8,0,0,0,8,16a1.434,1.434,0,0,0,1.333-1.333A1.262,1.262,0,0,0,9,13.778a1.262,1.262,0,0,1-.333-.889A1.434,1.434,0,0,1,10,11.556h1.556A4.458,4.458,0,0,0,16,7.111C16,3.222,12.444,0,8,0ZM3.111,8A1.434,1.434,0,0,1,1.778,6.667,1.434,1.434,0,0,1,3.111,5.333,1.434,1.434,0,0,1,4.444,6.667,1.434,1.434,0,0,1,3.111,8ZM5.778,4.444A1.434,1.434,0,0,1,4.444,3.111,1.434,1.434,0,0,1,5.778,1.778,1.434,1.434,0,0,1,7.111,3.111,1.434,1.434,0,0,1,5.778,4.444Zm4.444,0A1.434,1.434,0,0,1,8.889,3.111a1.434,1.434,0,0,1,1.333-1.333,1.434,1.434,0,0,1,1.333,1.333,1.434,1.434,0,0,1-1.333,1.333ZM12.889,8a1.434,1.434,0,0,1-1.333-1.333,1.434,1.434,0,0,1,1.333-1.333,1.434,1.434,0,0,1,1.333,1.333A1.434,1.434,0,0,1,12.889,8Zm0,0" fill="#fff"/></g></g></svg>