<svg xmlns="http://www.w3.org/2000/svg" viewBox="0 0 19.706 15"><defs><style>.a{fill:#818181;}</style></defs><path class="a" d="M17.3,0H2.409A2.406,2.406,0,0,0,0,2.409V12.591A2.406,2.406,0,0,0,2.409,15H17.3a2.406,2.406,0,0,0,2.409-2.409V2.409A2.416,2.416,0,0,0,17.3,0Zm1.3,12.591a1.306,1.306,0,0,1-1.3,1.3H2.409a1.306,1.306,0,0,1-1.3-1.3V2.409a1.306,1.306,0,0,1,1.3-1.3H17.3a1.306,1.306,0,0,1,1.3,1.3V12.591Zm0,0"/><path class="a" d="M24.374,18.308l4.818-4.32a.546.546,0,1,0-.723-.819L21.8,19.127l-1.3-1.156v-.016c-.032-.032-.064-.048-.1-.08L15.14,13.169a.546.546,0,0,0-.723.819L19.3,18.34l-4.882,4.545a.554.554,0,0,0-.032.771.575.575,0,0,0,.4.177.536.536,0,0,0,.369-.145l4.93-4.609,1.333,1.188a.544.544,0,0,0,.739,0l1.381-1.237,4.9,4.657a.564.564,0,0,0,.787-.032.552.552,0,0,0-.016-.771Zm0,0" transform="translate(-11.944 -10.936)"/></svg>