<svg xmlns="http://www.w3.org/2000/svg" viewBox="0 0 25.044 22.656"><defs><style>.a{fill:none;}.b,.d{fill:#141414;}.c,.d{stroke:none;}</style></defs><g transform="translate(126 -376)"><g transform="translate(-90 -245.676)"><g class="a" transform="translate(-34 624.675)"><path class="c" d="M9,17.656a9,9,0,0,1-9-9V8A9,9,0,0,1,9-1h2.82a9,9,0,0,1,9,9v.656a8.958,8.958,0,0,1-1.341,4.729c.645,1.395,1.785,3.97,1.53,4.222-.278.274-3.166-.857-4.372-1.347a8.959,8.959,0,0,1-4.817,1.4Z"/><path class="d" d="M 11.81970500946045 17.65620040893555 C 13.59148502349854 17.65620040893555 15.24376487731934 17.14414978027344 16.63649559020996 16.2601203918457 C 17.71524047851563 16.6978588104248 20.13947105407715 17.64894676208496 20.83832168579102 17.6489372253418 C 20.92087745666504 17.64893531799316 20.97936820983887 17.63566207885742 21.00870513916016 17.6067008972168 C 21.26399612426758 17.35466957092285 20.12392425537109 14.77995014190674 19.47867584228516 13.38514041900635 C 20.32894515991211 12.01096057891846 20.81970596313477 10.39097023010254 20.81970596313477 8.656200408935547 L 20.81970596313477 8.000100135803223 C 20.81970596313477 3.029400110244751 16.79039573669434 -0.9998998045921326 11.81970500946045 -0.9998998045921326 L 8.999995231628418 -0.9998998045921326 C 4.029304981231689 -0.9998998045921326 5.201110980124213e-06 3.029400110244751 5.201110980124213e-06 8.000100135803223 L 5.201110980124213e-06 8.656200408935547 C 5.201110980124213e-06 13.6269006729126 4.029304981231689 17.65620040893555 8.999995231628418 17.65620040893555 L 11.81970500946045 17.65620040893555 M 11.81970500946045 19.65620040893555 L 8.999995231628418 19.65620040893555 C 6.06172513961792 19.65620040893555 3.299365282058716 18.51202011108398 1.22177517414093 16.4344310760498 C -0.8558148145675659 14.35683059692383 -1.99999475479126 11.59447002410889 -1.99999475479126 8.656200408935547 L -1.99999475479126 8.000100135803223 C -1.99999475479126 5.061830043792725 -0.8558148145675659 2.299470186233521 1.22177517414093 0.2218701988458633 C 3.299365282058716 -1.855719804763794 6.06172513961792 -2.999899864196777 8.999995231628418 -2.999899864196777 L 11.81970500946045 -2.999899864196777 C 14.75797557830811 -2.999899864196777 17.52033615112305 -1.855719804763794 19.59792518615723 0.2218701988458633 C 21.6755256652832 2.299470186233521 22.81970596313477 5.061830043792725 22.81970596313477 8.000100135803223 L 22.81970596313477 8.656200408935547 C 22.81970596313477 10.33247661590576 22.43967819213867 11.97608184814453 21.71325302124023 13.46851062774658 C 21.96017837524414 14.02266120910645 22.22346687316895 14.63464260101318 22.44288444519043 15.19313049316406 C 22.65421485900879 15.73104000091553 22.80316543579102 16.16275978088379 22.89822578430176 16.512939453125 C 23.00617599487305 16.91061973571777 23.3347053527832 18.12083053588867 22.41380500793457 19.02997016906738 C 22.12765502929688 19.31241035461426 21.6221752166748 19.64894104003906 20.83832550048828 19.64894104003906 C 20.83737564086914 19.64894104003906 20.83636665344238 19.64894104003906 20.83541107177734 19.64894104003906 C 20.48715209960938 19.64894104003906 19.79191017150879 19.64573097229004 16.78693580627441 18.47289848327637 C 15.25377082824707 19.24961853027344 13.55611610412598 19.65620040893555 11.81970500946045 19.65620040893555 Z"/></g></g><g transform="translate(-119 388.5) rotate(-90)"><circle class="b" cx="1.25" cy="1.25" r="1.25" transform="translate(0 0)"/><circle class="b" cx="1.25" cy="1.25" r="1.25" transform="translate(0 4.167)"/><path class="b" d="M1.25,0A1.25,1.25,0,1,1,0,1.25,1.25,1.25,0,0,1,1.25,0Z" transform="translate(0 8.333)"/></g></g></svg>