<svg xmlns="http://www.w3.org/2000/svg" viewBox="0 0 23.985 24"><defs><style>.a{fill:#262626;}</style></defs><g transform="translate(-289 -30)"><path class="a" d="M21.908,23.9c-.278-.066-.534-.137-.783-.207a7.711,7.711,0,0,0-2.278-.376,10.607,10.607,0,0,0-1.991.216,22.071,22.071,0,0,1-4.094.388c-.506,0-.809-.021-.812-.021A11.95,11.95,0,1,1,23.9,11.949a28.078,28.078,0,0,1-.631,5.194,4.972,4.972,0,0,0,.221,3.389,9.6,9.6,0,0,1,.41,1.375,2.012,2.012,0,0,1-.192,1.687,1.256,1.256,0,0,1-1.03.405A3.383,3.383,0,0,1,21.908,23.9ZM2.178,11.958a9.79,9.79,0,0,0,9.779,9.779s.247.017.664.017a18.046,18.046,0,0,0,3.352-.317,13.965,13.965,0,0,1,2.614-.3,9.109,9.109,0,0,1,1.776.187c.657.156,1.357.407,1.374.413a.3.3,0,0,1-.019-.043,16.115,16.115,0,0,1-.59-1.656c-.016-.1-.031-.189-.046-.277v-.007a6.851,6.851,0,0,1,.14-3.546,23.08,23.08,0,0,0,.515-4.249,9.779,9.779,0,1,0-19.558,0Zm13.184.81a1.248,1.248,0,1,1,1.248,1.248A1.248,1.248,0,0,1,15.362,12.768Zm-4.8,0a1.248,1.248,0,1,1,1.248,1.248A1.248,1.248,0,0,1,10.562,12.768Zm-4.8,0a1.248,1.248,0,1,1,1.248,1.248A1.248,1.248,0,0,1,5.761,12.768Z" transform="translate(289 30)"/></g></svg>