<svg xmlns="http://www.w3.org/2000/svg" viewBox="0 0 16 20.086"><defs><style>.a{fill:#818181;}</style></defs><g transform="translate(0 0)"><path class="a" d="M13.643,7.373h-8.3V4.151A2.612,2.612,0,0,1,8,1.578a2.626,2.626,0,0,1,2.659,2.573V5.643h1.578V4.151a4.239,4.239,0,0,0-8.476,0V7.373H2.357A2.362,2.362,0,0,0,0,9.73v8a2.362,2.362,0,0,0,2.357,2.357H13.643A2.362,2.362,0,0,0,16,17.73v-8A2.362,2.362,0,0,0,13.643,7.373Zm.778,10.357a.775.775,0,0,1-.778.778H2.357a.775.775,0,0,1-.778-.778v-8a.775.775,0,0,1,.778-.778H13.643a.775.775,0,0,1,.778.778Z"/><path class="a" d="M31.749,51.9h0A1.449,1.449,0,0,0,30.3,53.349a1.407,1.407,0,0,0,.67,1.211v1.73a.778.778,0,0,0,1.557,0v-1.73a1.434,1.434,0,0,0,.67-1.211A1.449,1.449,0,0,0,31.749,51.9Z" transform="translate(-23.749 -40.678)"/></g></svg>