<svg xmlns="http://www.w3.org/2000/svg" viewBox="0 0 18.571 17"><defs><style>.a{fill:none;}.b{fill:#8a5538;}</style></defs><path class="a" d="M22.182,11.963A2.482,2.482,0,1,0,19.7,9.482,2.489,2.489,0,0,0,22.182,11.963Z" transform="translate(-14.811 -5.263)"/><path class="b" d="M2.978,15.263a1.229,1.229,0,0,1-1.241-1.241V13.2A4.766,4.766,0,0,1,6.5,8.438H8.264a4.76,4.76,0,0,1,4.467,3.152L14,10.175A6.506,6.506,0,0,0,10.473,7.1a4.217,4.217,0,1,0-7.3-2.879A4.159,4.159,0,0,0,4.318,7.1,6.474,6.474,0,0,0,0,13.2v.819A2.987,2.987,0,0,0,2.978,17H9.307L7.3,15.263ZM7.371,1.737A2.482,2.482,0,1,1,4.889,4.219,2.489,2.489,0,0,1,7.371,1.737Z"/><path class="b" d="M45.7,68.5Z" transform="translate(-34.358 -51.5)"/><path class="b" d="M39.069,32.919a.841.841,0,0,0-1.216.074l-2.606,2.9-1.464,1.638L32.046,39.5,29.068,36.94a.863.863,0,0,0-1.117,1.315l1.836,1.588,1.762,1.539a.845.845,0,0,0,.571.2h0a.836.836,0,0,0,.645-.3l2.78-3.1,3.6-4.02A.917.917,0,0,0,39.069,32.919Z" transform="translate(-20.779 -24.581)"/></svg>