<svg xmlns="http://www.w3.org/2000/svg" viewBox="0 0 24 21.7"><defs><style>.a{fill:#262626;}</style></defs><g transform="translate(-333 -31.5)"><path class="a" d="M-1479,2.4h-15.9a1.341,1.341,0,0,0,.5-1.051,1.341,1.341,0,0,0-.391-.95H-1479a1,1,0,0,1,1,1A1,1,0,0,1-1479,2.4Zm-17.587,0H-1501a1,1,0,0,1-1-1,1,1,0,0,1,1-1h4.3a1.34,1.34,0,0,0-.391.95,1.343,1.343,0,0,0,.5,1.049Z" transform="translate(1835 33)"/><path class="a" d="M-1479,2.4h-4.9a1.342,1.342,0,0,0,.5-1.051,1.341,1.341,0,0,0-.391-.95H-1479a1,1,0,0,1,1,1A1,1,0,0,1-1479,2.4Zm-6.587,0H-1501a1,1,0,0,1-1-1,1,1,0,0,1,1-1h15.3a1.34,1.34,0,0,0-.391.95,1.343,1.343,0,0,0,.5,1.049Z" transform="translate(1835 41)"/><path class="a" d="M-1479,2.4h-11.9a1.341,1.341,0,0,0,.5-1.051,1.34,1.34,0,0,0-.391-.95H-1479a1,1,0,0,1,1,1A1,1,0,0,1-1479,2.4Zm-13.587,0H-1501a1,1,0,0,1-1-1,1,1,0,0,1,1-1h8.3a1.34,1.34,0,0,0-.391.95,1.343,1.343,0,0,0,.5,1.049Z" transform="translate(1835 49)"/><path class="a" d="M-1499.15,5.7A2.853,2.853,0,0,1-1502,2.85,2.854,2.854,0,0,1-1499.15,0a2.853,2.853,0,0,1,2.849,2.85A2.853,2.853,0,0,1-1499.15,5.7Zm.008-4.2a1.35,1.35,0,0,0-1.349,1.348,1.351,1.351,0,0,0,1.349,1.349,1.35,1.35,0,0,0,1.348-1.349A1.35,1.35,0,0,0-1499.142,1.5Z" transform="translate(1838.4 31.5)"/><path class="a" d="M-1499.15,5.7A2.853,2.853,0,0,1-1502,2.85,2.854,2.854,0,0,1-1499.15,0a2.853,2.853,0,0,1,2.849,2.85A2.853,2.853,0,0,1-1499.15,5.7Zm.008-4.2a1.35,1.35,0,0,0-1.349,1.348,1.351,1.351,0,0,0,1.349,1.349,1.35,1.35,0,0,0,1.348-1.349A1.35,1.35,0,0,0-1499.142,1.5Z" transform="translate(1849.4 39.5)"/><path class="a" d="M-1499.15,5.7A2.853,2.853,0,0,1-1502,2.85,2.854,2.854,0,0,1-1499.15,0a2.853,2.853,0,0,1,2.849,2.85A2.853,2.853,0,0,1-1499.15,5.7Zm.008-4.2a1.35,1.35,0,0,0-1.349,1.348,1.351,1.351,0,0,0,1.349,1.349,1.35,1.35,0,0,0,1.348-1.349A1.35,1.35,0,0,0-1499.142,1.5Z" transform="translate(1842.4 47.5)"/></g></svg>