<svg xmlns="http://www.w3.org/2000/svg" viewBox="0 0 24.521 17"><defs><style>.a{fill:#8a5538;}</style></defs><g transform="translate(18.534 8.095)"><path class="a" d="M151.918,68.592a.367.367,0,0,1-.374-.374,2.574,2.574,0,0,0-2.569-2.569.374.374,0,0,1,0-.748,3.324,3.324,0,0,1,3.318,3.318A.367.367,0,0,1,151.918,68.592Z" transform="translate(-148.6 -64.9)"/></g><path class="a" d="M23.935,8.893h0l-.212-.374L23.7,8.481l-3.268-5.6A3.691,3.691,0,0,0,17.087.811,3.076,3.076,0,0,0,16.6.848a1.754,1.754,0,0,0-3.255.91V4.627h-2.12V1.759A1.746,1.746,0,0,0,7.982.848,3.2,3.2,0,0,0,7.5.811a3.7,3.7,0,0,0-3.343,2.07L1.035,8.145a5.219,5.219,0,0,0-.5.848h0a5.6,5.6,0,1,0,10.639,2.968l.025-.549v-.037l.012-1.447h2.133v.96c-.012.162-.025.324-.025.486s.012.324.025.486l.025.237a5.6,5.6,0,0,0,11.15-.723A5.552,5.552,0,0,0,23.935,8.893ZM9.591,11.525A3.992,3.992,0,0,1,1.609,11.4,3.935,3.935,0,0,1,2.12,9.454a4.1,4.1,0,0,1,.249-.387c.087-.125.2-.249.3-.374A3.956,3.956,0,0,1,5.6,7.409,4,4,0,0,1,9.517,10.6a2.894,2.894,0,0,1,.062.474,2.819,2.819,0,0,1,.012.324Zm1.646-5.812h0v0Zm7.7,9.679a4,4,0,0,1-3.991-3.754c0-.075-.012-.162-.012-.237v-.212c.012-.162.025-.312.05-.474a4,4,0,0,1,3.929-3.305,3.962,3.962,0,0,1,2.881,1.235,4.325,4.325,0,0,1,.312.362c.087.125.175.249.249.374a3.992,3.992,0,0,1-3.417,6.012Z"/></svg>