<svg xmlns="http://www.w3.org/2000/svg" viewBox="0 0 20.16 23.941"><defs><style>.a,.e{fill:#262626;}.b,.c{fill:none;}.c{stroke-linecap:round;}.d,.e{stroke:none;}</style></defs><g transform="translate(0)"><path class="a" d="M27.884.443A1.149,1.149,0,0,0,26.976,0a1.345,1.345,0,0,0-.631.166,3.469,3.469,0,0,0-1.23,1.629A3.68,3.68,0,0,0,23.885.166,1.345,1.345,0,0,0,23.254,0a1.149,1.149,0,0,0-.908.443,1.087,1.087,0,0,0-.266.875q.166.847,1.629,1.5a8.94,8.94,0,0,0,1.307.454h.011a.041.041,0,0,1,.033.011h.111a.041.041,0,0,0,.033-.011h.011a10.127,10.127,0,0,0,1.307-.454q1.462-.648,1.629-1.5a1.087,1.087,0,0,0-.266-.875Zm0,0" transform="translate(-15.056)"/><path class="b" d="M70.1,114.7Z" transform="translate(-55.963 -94.425)"/><g class="c" transform="translate(0 3.874)"><path class="d" d="M9.937,16.728H3.713A3.714,3.714,0,0,1,1.076,10.4l.008-.012C2.468,8.458,2.455,4.763,4.618,2.264A7.234,7.234,0,0,1,10.147,0a7.21,7.21,0,0,1,5.469,2.262c2.162,2.5,2.149,6.192,3.533,8.123a.685.685,0,0,1,.095.184,3.714,3.714,0,0,1-2.8,6.156Z"/><path class="e" d="M 16.44569969177246 14.72830009460449 C 17.39097023010254 14.72830009460449 18.15999984741211 13.95926952362061 18.15999984741211 13.01399993896484 C 18.15999984741211 12.48266983032227 17.93066024780273 12.10888004302979 17.73826026916504 11.8888692855835 L 17.47064018249512 11.58283996582031 L 17.40423393249512 11.38072872161865 C 16.6864128112793 10.30107402801514 16.30316543579102 8.98298168182373 15.93186950683594 7.706069946289063 C 15.49726963043213 6.211429595947266 15.04786014556885 4.665889739990234 14.10377979278564 3.575199604034424 C 12.83983039855957 2.115119695663452 10.88825035095215 2.001649618148804 10.32021999359131 2.001649618148804 C 10.27618026733398 2.001649618148804 10.24147033691406 2.002389669418335 10.2173900604248 2.003249645233154 L 10.12458992004395 2.006619691848755 L 10.03096961975098 2.001149654388428 C 10.03055000305176 2.001129627227783 9.988639831542969 1.998909711837769 9.913519859313965 1.998909711837769 C 9.345580101013184 1.998909711837769 7.394279956817627 2.112429618835449 6.130049705505371 3.573369741439819 C 5.185299873352051 4.664759635925293 4.735729694366455 6.21088981628418 4.300960063934326 7.706109523773193 C 3.911484956741333 9.045575141906738 3.508757352828979 10.43048191070557 2.720690488815308 11.53770065307617 C 2.705580234527588 11.55947971343994 2.690337896347046 11.58061599731445 2.67549991607666 11.6003999710083 L 2.59306001663208 11.71031951904297 L 2.496359825134277 11.80792999267578 C 2.17628002166748 12.13105010986328 1.99999988079071 12.55937004089355 1.99999988079071 13.01399993896484 C 1.99999988079071 13.95926952362061 2.768630027770996 14.72830009460449 3.713399887084961 14.72830009460449 L 9.93690013885498 14.72830009460449 L 16.44569969177246 14.72830009460449 M 16.44569969177246 16.72830009460449 L 9.93690013885498 16.72830009460449 L 3.713399887084961 16.72830009460449 C 1.662299871444702 16.72830009460449 -7.629394360719743e-08 15.06509971618652 -7.629394360719743e-08 13.01399993896484 C -7.629394360719743e-08 11.99520015716553 0.4103999137878418 11.07179927825928 1.075499892234802 10.40040016174316 C 1.078199982643127 10.39680004119873 1.080899953842163 10.39229965209961 1.083599925041199 10.38869953155518 C 2.46779990196228 8.458199501037598 2.455199956893921 4.762799739837646 4.617899894714355 2.264399766921997 C 6.432966709136963 0.1669202744960785 9.103663444519043 -0.001087390119209886 9.913516998291016 -0.001087390119209886 C 10.04051685333252 -0.001087390119209886 10.12158966064453 0.003035681089386344 10.14659976959229 0.004499719012528658 C 10.1872615814209 0.003058367874473333 10.24586009979248 0.001648664590902627 10.32022190093994 0.001648664590902627 C 11.12807559967041 0.001648664590902627 13.7994966506958 0.1679407954216003 15.61590003967285 2.266199827194214 C 17.77770042419434 4.763699531555176 17.76510047912598 8.458199501037598 19.14929962158203 10.38869953155518 C 19.19160079956055 10.44810009002686 19.22310066223145 10.50929927825928 19.24379920959473 10.57229995727539 C 19.81439971923828 11.22480010986328 20.15999984741211 12.07889938354492 20.15999984741211 13.01399993896484 C 20.15999984741211 15.06509971618652 18.49679946899414 16.72830009460449 16.44569969177246 16.72830009460449 Z"/></g><path class="a" d="M30.354,122.327a2.917,2.917,0,0,0,3.608-1.927H28.4A2.907,2.907,0,0,0,30.354,122.327Z" transform="translate(-21.104 -98.505)"/></g></svg>