<svg xmlns="http://www.w3.org/2000/svg" viewBox="0 0 23 23"><defs><style>.a{fill:#fff;}</style></defs><path class="a" d="M17.885,23a1.515,1.515,0,0,1-1.512-1.513v-3.6a1.515,1.515,0,0,1,1.512-1.512h3.6A1.515,1.515,0,0,1,23,17.885v3.6A1.516,1.516,0,0,1,21.488,23ZM9.7,23a1.515,1.515,0,0,1-1.512-1.513v-3.6A1.515,1.515,0,0,1,9.7,16.373h3.6a1.515,1.515,0,0,1,1.513,1.512v3.6A1.516,1.516,0,0,1,13.3,23ZM1.512,23A1.515,1.515,0,0,1,0,21.488v-3.6a1.515,1.515,0,0,1,1.512-1.512h3.6a1.515,1.515,0,0,1,1.512,1.512v3.6A1.515,1.515,0,0,1,5.115,23Zm16.373-8.187A1.515,1.515,0,0,1,16.373,13.3V9.7a1.515,1.515,0,0,1,1.512-1.512h3.6A1.515,1.515,0,0,1,23,9.7v3.6a1.515,1.515,0,0,1-1.513,1.512ZM17.53,9.7v0ZM9.7,14.813A1.515,1.515,0,0,1,8.186,13.3V9.7A1.515,1.515,0,0,1,9.7,8.186h3.6A1.515,1.515,0,0,1,14.814,9.7v3.6A1.515,1.515,0,0,1,13.3,14.813ZM9.344,9.7v0ZM1.512,14.813A1.515,1.515,0,0,1,0,13.3V9.7A1.519,1.519,0,0,1,1.512,8.186h3.6A1.515,1.515,0,0,1,6.627,9.7v3.6a1.514,1.514,0,0,1-1.512,1.512Zm3.957-2.331v0ZM17.885,6.627a1.515,1.515,0,0,1-1.512-1.512v-3.6A1.515,1.515,0,0,1,17.885,0h3.6A1.515,1.515,0,0,1,23,1.512v3.6a1.515,1.515,0,0,1-1.513,1.512ZM17.53,1.512v0ZM9.7,6.627A1.515,1.515,0,0,1,8.186,5.115v-3.6A1.515,1.515,0,0,1,9.7,0h3.6a1.515,1.515,0,0,1,1.513,1.512v3.6A1.515,1.515,0,0,1,13.3,6.627ZM9.344,1.512v0ZM1.512,6.627A1.515,1.515,0,0,1,0,5.115v-3.6A1.515,1.515,0,0,1,1.512,0h3.6A1.515,1.515,0,0,1,6.627,1.512v3.6A1.514,1.514,0,0,1,5.115,6.627Z"/></svg>