<svg xmlns="http://www.w3.org/2000/svg" viewBox="0 0 18.8 12.088"><defs><style>.a{fill:none;}.b{fill:#aaa;}</style></defs><path class="a" d="M20.5,14.5a4.662,4.662,0,0,1,.644,2.366,4.726,4.726,0,0,1-4.7,4.7,4.726,4.726,0,0,1-4.7-4.7,4.549,4.549,0,0,1,.644-2.366A10.434,10.434,0,0,0,8.4,18.2a10.92,10.92,0,0,0,3.493,3.428,8.795,8.795,0,0,0,9.11,0A10.761,10.761,0,0,0,24.5,18.2,10.211,10.211,0,0,0,20.5,14.5Z" transform="translate(-7.048 -12.166)"/><path class="b" d="M18.591,5.312a11.33,11.33,0,0,0-3.943-3.863A10.281,10.281,0,0,0,9.4,0,10.144,10.144,0,0,0,4.153,1.465,10.934,10.934,0,0,0,.209,5.328a1.358,1.358,0,0,0,0,1.449,11.286,11.286,0,0,0,3.943,3.847A10.256,10.256,0,0,0,9.4,12.088a10.281,10.281,0,0,0,5.247-1.449,10.934,10.934,0,0,0,3.943-3.863,1.385,1.385,0,0,0,.209-.724A1.483,1.483,0,0,0,18.591,5.312ZM9.4,1.416A3.316,3.316,0,1,1,6.084,4.732,3.311,3.311,0,0,1,9.4,1.416Zm4.555,8.048A8.616,8.616,0,0,1,9.4,10.736,8.575,8.575,0,0,1,4.845,9.464,10.761,10.761,0,0,1,1.352,6.036a10.311,10.311,0,0,1,3.992-3.7A4.662,4.662,0,0,0,4.7,4.7,4.536,4.536,0,0,0,6.084,8.016,4.536,4.536,0,0,0,9.4,9.4a4.536,4.536,0,0,0,3.316-1.384A4.536,4.536,0,0,0,14.1,4.7a4.549,4.549,0,0,0-.644-2.366,10.434,10.434,0,0,1,3.992,3.7A10.6,10.6,0,0,1,13.955,9.464Z" transform="translate(0 0)"/><path class="b" d="M45.141,12.045a.417.417,0,0,0-.177-.113.579.579,0,0,0-.177-.032A3.187,3.187,0,0,0,41.6,15.087a.37.37,0,0,0,.064.225.337.337,0,0,0,.1.129.5.5,0,0,0,.853-.354A2.2,2.2,0,0,1,44.8,12.9a.495.495,0,0,0,.5-.5A.558.558,0,0,0,45.141,12.045Z" transform="translate(-34.904 -9.985)"/></svg>