<svg xmlns="http://www.w3.org/2000/svg" viewBox="0 0 23.287 20"><defs><style>.a{fill:#ff535f;}</style></defs><g transform="translate(-0.474 -0.503)"><path class="a" d="M21.722,2.564C18.248-.964,14.853.591,12.117,3.1,9.38.591,5.959-.937,2.511,2.564a7.082,7.082,0,0,0-1.6,7.419.613.613,0,0,0,.036.089c.027.062.044.116.071.178.018.036.027.071.044.107.027.053.044.107.071.16.036.08.08.16.116.24a.567.567,0,0,0,.071.124c.027.044.053.1.08.142s.044.08.071.124a.881.881,0,0,0,.1.151c.027.036.044.071.071.107.053.08.107.16.169.24a.493.493,0,0,0,.053.071c.044.062.089.116.133.178.027.036.053.062.08.1l.133.16c.027.027.053.062.08.089.062.071.124.133.2.2l.027.027c4.594,4.185,7,6.371,8.255,7.5a2.025,2.025,0,0,0,2.746-.009c1.253-1.137,3.634-3.323,8.21-7.5A7.026,7.026,0,0,0,21.722,2.564Z" transform="translate(0 0)"/></g></svg>