<svg xmlns="http://www.w3.org/2000/svg" viewBox="0 0 107.946 25.685"><g transform="translate(-15 -32)"><path d="M18.977,23.987l-.233.116a12.92,12.92,0,0,1-5.123,1.4,12.479,12.479,0,0,1-9.9-3.726A12.31,12.31,0,0,1,0,12.81,12.769,12.769,0,0,1,3.726,3.729,12.479,12.479,0,0,1,13.622,0a13.469,13.469,0,0,1,5.123,1.4h0c.116.116.233.233.116.349h0a3.464,3.464,0,0,1-4.191,2.212,11.471,11.471,0,0,0-1.979-.233A8.929,8.929,0,0,0,6.17,6.64a9.316,9.316,0,0,0-2.1,8.033,8.048,8.048,0,0,0,1.164,2.911,8.923,8.923,0,0,0,8.15,4.075c.349,0,.815-.116,1.164-.116a3.647,3.647,0,0,1,4.424,2.445Z" transform="translate(15 32.037)"/><path d="M51.971,16.616a4.876,4.876,0,0,1-1.048,3.143,5.128,5.128,0,0,1-4.075,1.979,5.048,5.048,0,0,1-3.493-1.514,4.739,4.739,0,0,1-1.4-3.493V2.179A1.962,1.962,0,0,0,39.979.2h0A1.962,1.962,0,0,0,38,2.179v14.2a9.35,9.35,0,0,0,2.212,6.17,8.515,8.515,0,0,0,7.335,3.027,8.379,8.379,0,0,0,5.123-2.1,8.725,8.725,0,0,0,3.143-6.869V2.179A1.962,1.962,0,0,0,53.834.2h0a1.94,1.94,0,0,0-1.863,1.979Z" transform="translate(21.241 32.073)"/><path d="M92.235,3.5h0A11.8,11.8,0,0,0,85.716.122,12.6,12.6,0,0,0,73.258,5.128a11.2,11.2,0,0,0-2.445,5.938A12.74,12.74,0,0,0,85.25,25.386a11.2,11.2,0,0,0,5.938-2.445,12.526,12.526,0,0,0,5.123-11.06A14.633,14.633,0,0,0,92.235,3.5Zm0,8.5a8.607,8.607,0,0,1-3.143,7.568,9.68,9.68,0,0,1-4.89,2.1,8.607,8.607,0,0,1-7.568-3.143,8.779,8.779,0,0,1-2.1-5.006,8.607,8.607,0,0,1,3.143-7.568,8.779,8.779,0,0,1,5.006-2.1A8.744,8.744,0,0,1,92.235,12Z" transform="translate(26.615 32.035)"/><path d="M58.763,23.769h0a1.962,1.962,0,0,0,1.979-1.979V13.058h5.821a1.962,1.962,0,0,0,1.979-1.979h0A1.962,1.962,0,0,0,66.563,9.1H58.879A1.962,1.962,0,0,0,56.9,11.079V21.674A1.9,1.9,0,0,0,58.763,23.769Z" transform="translate(24.345 33.535)"/><path d="M58.779,4.058h9.78a1.962,1.962,0,0,0,1.979-1.979h0A1.962,1.962,0,0,0,68.559.1h-9.78A1.962,1.962,0,0,0,56.8,2.079h0A2.038,2.038,0,0,0,58.779,4.058Z" transform="translate(24.329 32.057)"/><path d="M33.087,10.795H22.958V2.179A1.962,1.962,0,0,0,20.979.2h0A1.962,1.962,0,0,0,19,2.179V19.41a1.962,1.962,0,0,0,1.979,1.979h0a1.962,1.962,0,0,0,1.979-1.979V14.637H33.087v8.732a1.962,1.962,0,0,0,1.979,1.979h0a1.962,1.962,0,0,0,1.979-1.979V6.021a1.962,1.962,0,0,0-1.979-1.979h0a1.962,1.962,0,0,0-1.979,1.979Z" transform="translate(18.121 32.073)"/></g></svg>