<svg xmlns="http://www.w3.org/2000/svg" width="15.479" height="15.479" viewBox="0 0 15.479 15.479"><path d="M7.74,0a7.74,7.74,0,0,0,0,15.479,1.387,1.387,0,0,0,1.29-1.29,1.221,1.221,0,0,0-.322-.86,1.221,1.221,0,0,1-.322-.86,1.387,1.387,0,0,1,1.29-1.29h1.5a4.312,4.312,0,0,0,4.3-4.3c0-3.762-3.44-6.88-7.74-6.88ZM3.01,7.74A1.387,1.387,0,0,1,1.72,6.45,1.387,1.387,0,0,1,3.01,5.16,1.387,1.387,0,0,1,4.3,6.45,1.387,1.387,0,0,1,3.01,7.74ZM5.59,4.3A1.387,1.387,0,0,1,4.3,3.01,1.387,1.387,0,0,1,5.59,1.72,1.387,1.387,0,0,1,6.88,3.01,1.387,1.387,0,0,1,5.59,4.3Zm4.3,0A1.387,1.387,0,0,1,8.6,3.01,1.387,1.387,0,0,1,9.89,1.72a1.387,1.387,0,0,1,1.29,1.29A1.387,1.387,0,0,1,9.89,4.3Zm2.58,3.44a1.387,1.387,0,0,1-1.29-1.29,1.387,1.387,0,0,1,1.29-1.29,1.387,1.387,0,0,1,1.29,1.29,1.387,1.387,0,0,1-1.29,1.29Zm0,0" fill="#fff"/></svg>