<svg xmlns="http://www.w3.org/2000/svg" viewBox="0 0 22 22"><defs><style>.a{fill:#fff;}</style></defs><g transform="translate(-277.192 -69.192)"><g transform="translate(277.192 69.192)"><path class="a" d="M11,22A11,11,0,0,1,0,11,11,11,0,0,1,16.99,1.77a11.025,11.025,0,0,1,3.987,4.589.86.86,0,0,1-1.56.726A9.282,9.282,0,1,0,11,20.281a1.613,1.613,0,0,0,1.319-.486,1.647,1.647,0,0,0,.314-1.018,2.05,2.05,0,0,0-.4-1.263,3.7,3.7,0,0,1-.636-2.131,3.579,3.579,0,0,1,1.053-2.591,3.675,3.675,0,0,1,2.6-1.018,4.207,4.207,0,0,1,2.144.567,2.589,2.589,0,0,0,1.379.378c.451,0,1.5-.168,1.5-1.719A.859.859,0,0,1,22,11a3.36,3.36,0,0,1-1.109,2.686,3.279,3.279,0,0,1-2.114.752,4.24,4.24,0,0,1-2.166-.571,2.522,2.522,0,0,0-1.358-.374,1.83,1.83,0,0,0-1.934,1.891,2.01,2.01,0,0,0,.391,1.242,3.7,3.7,0,0,1,.64,2.153,3.337,3.337,0,0,1-.7,2.1A3.218,3.218,0,0,1,11,22Z" transform="translate(0 0)"/><path class="a" d="M81.289,235.578a1.289,1.289,0,1,1,1.289-1.289A1.293,1.293,0,0,1,81.289,235.578Z" transform="translate(-76.562 -222.988)"/><path class="a" d="M225.289,82.578a1.289,1.289,0,1,1,1.289-1.289A1.293,1.293,0,0,1,225.289,82.578Z" transform="translate(-214.375 -76.562)"/><path class="a" d="M119.313,130.6a1.271,1.271,0,0,1-.911-.378,1.288,1.288,0,0,1,1.822-1.822h0a1.289,1.289,0,0,1,0,1.822A1.271,1.271,0,0,1,119.313,130.6Z" transform="translate(-112.954 -122.524)"/><path class="a" d="M328.313,123.6a1.271,1.271,0,0,1-.911-.378,1.288,1.288,0,1,1,1.822,0A1.271,1.271,0,0,1,328.313,123.6Z" transform="translate(-312.973 -115.825)"/><path class="a" d="M122.289,334.6a1.288,1.288,0,0,1-.911-2.2h0a1.289,1.289,0,0,1,2.2.911,1.291,1.291,0,0,1-1.289,1.289Z" transform="translate(-115.801 -317.758)"/></g></g></svg>